<?xml version="1.0" encoding="utf-8"?>
<!-- Generated by IcoMoon.io -->
<!DOCTYPE svg PUBLIC "-//W3C//DTD SVG 1.1//EN" "http://www.w3.org/Graphics/SVG/1.1/DTD/svg11.dtd">
<svg version="1.1" xmlns="http://www.w3.org/2000/svg" xmlns:xlink="http://www.w3.org/1999/xlink" width="2016" height="96" viewBox="0 0 2016 96">
<svg id="icon-facebook" width="96" height="96" viewBox="0 0 96 96" x="0" y="0">
<path fill="#475993" d="M83.063 0h-70.127c-7.144 0-12.936 5.792-12.936 12.936v70.127c0 7.145 5.792 12.936 12.936 12.936h34.586l0.059-34.305h-8.912c-1.158 0-2.098-0.937-2.103-2.095l-0.043-11.058c-0.005-1.165 0.938-2.111 2.103-2.111h8.896v-10.685c0-12.4 7.573-19.151 18.634-19.151h9.077c1.161 0 2.103 0.941 2.103 2.103v9.324c0 1.161-0.941 2.102-2.102 2.103l-5.57 0.003c-6.015 0-7.18 2.858-7.18 7.053v9.25h13.218c1.259 0 2.237 1.1 2.088 2.351l-1.311 11.058c-0.125 1.058-1.023 1.855-2.088 1.855h-11.848l-0.059 34.305h20.579c7.144 0 12.936-5.792 12.936-12.936v-70.128c-0-7.145-5.792-12.936-12.936-12.936z"></path>
</svg>
<svg id="icon-twitter" width="96" height="96" viewBox="0 0 96 96" x="128" y="0">
<path fill="#76a9ea" d="M94.473 17.362c-2.133 0.946-4.347 1.692-6.619 2.232 2.503-2.379 4.386-5.355 5.448-8.676v0c0.303-0.948-0.727-1.768-1.583-1.26v0c-3.161 1.875-6.565 3.281-10.119 4.181-0.206 0.052-0.419 0.079-0.632 0.079-0.647 0-1.277-0.24-1.772-0.677-3.781-3.333-8.645-5.168-13.694-5.168-2.185 0-4.391 0.341-6.557 1.012-6.711 2.081-11.889 7.617-13.514 14.447-0.609 2.562-0.774 5.126-0.491 7.621 0.033 0.287-0.103 0.487-0.187 0.581-0.147 0.165-0.355 0.259-0.571 0.259-0.024 0-0.049-0.001-0.074-0.003-14.69-1.365-27.937-8.442-37.3-19.928v0c-0.477-0.586-1.393-0.514-1.774 0.139v0c-1.834 3.146-2.803 6.744-2.803 10.405 0 5.611 2.254 10.898 6.17 14.753-1.647-0.39-3.24-1.005-4.721-1.828v0c-0.716-0.398-1.597 0.114-1.608 0.933v0c-0.103 8.335 4.778 15.752 12.088 19.092-0.147 0.003-0.294 0.005-0.442 0.005-1.159 0-2.332-0.112-3.487-0.333v0c-0.807-0.154-1.484 0.611-1.234 1.393v0c2.373 7.408 8.751 12.869 16.384 14.109-6.335 4.253-13.712 6.496-21.391 6.496l-2.394-0.001c-0.738 0-1.361 0.481-1.549 1.195-0.185 0.704 0.156 1.446 0.785 1.812 8.652 5.035 18.521 7.697 28.545 7.697 8.774 0 16.981-1.741 24.393-5.175 6.795-3.148 12.8-7.648 17.848-13.374 4.702-5.335 8.379-11.493 10.929-18.304 2.43-6.492 3.715-13.419 3.715-20.033v-0.315c-0-1.062 0.48-2.061 1.318-2.741 3.18-2.582 5.949-5.621 8.229-9.033v0c0.602-0.901-0.348-2.030-1.339-1.59v0z"></path>
</svg>
<svg id="icon-youtube" width="96" height="96" viewBox="0 0 96 96" x="256" y="0">
<path fill="#f61c0d" d="M76.062 14.034h-56.124c-11.011 0-19.938 8.927-19.938 19.938v28.056c0 11.011 8.927 19.938 19.938 19.938h56.124c11.011 0 19.938-8.927 19.938-19.938v-28.056c0-11.011-8.927-19.938-19.938-19.938zM62.578 49.365l-26.251 12.52c-0.699 0.334-1.508-0.176-1.508-0.951v-25.823c0-0.786 0.829-1.295 1.53-0.94l26.251 13.303c0.78 0.395 0.767 1.515-0.023 1.891z"></path>
</svg>
</svg>
